# xmcd
#
# Track frame offsets:
#	150
#	19811
#	50892
#	70865
#	80487
#	105308
#	126261
#	153149
#	188242
#	217877
#	241587
#
# Disc length: 3465 seconds
#
# Revision: 0
# Processed by: cddbd v1.4PL0 Copyright (c) Steve Scherf et al.
# Submitted via: EasyCDDAExtractor 4.6.0.1
#
DISCID=890d870b
DTITLE=Rebekka Bakken and Wolfgang Muthspiel - Daily Mirror
DYEAR=1900
DGENRE=
TTITLE0=It's OK
TTITLE1=Emotions On A Lazy Day
TTITLE2=Nowhere
TTITLE3=Wonders
TTITLE4=Day After Day
TTITLE5=Smack Of Dogskin
TTITLE6=Angela
TTITLE7=Drawing Lines
TTITLE8=Sister
TTITLE9=Jesus Song
TTITLE10=Love Of Another
EXTD=
EXTT0=
EXTT1=
EXTT2=
EXTT3=
EXTT4=
EXTT5=
EXTT6=
EXTT7=
EXTT8=
EXTT9=
EXTT10=
PLAYORDER=
